<svg class="Icon__icon--YFXFc Button__icon--2clqH" data-testid="icon-thoroughbred" viewBox="0 0 32 32"><path d="M17.72 28.24a.54.54 0 01-.48-.32c-.08-.24-.24-.56-.32-.8-.4-.88-.88-1.76-1.28-2.65-.24-.4-.4-.72-.64-1.12l-.24-.4-.48-1a7.06 7.06 0 01-.64-2.65.55.55 0 01.56-.56.6.6 0 01.56.56 5.09 5.09 0 00.56 2.17c.16.32.24.56.4.88l.24.4c.16.4.4.72.56 1.12.48.88 1 1.76 1.44 2.73a9.41 9.41 0 01.4.88c.08.32 0 .64-.32.72zm6.58-5.86a1.53 1.53 0 01-1-.56 4.41 4.41 0 01-.56-.72c-.08-.16-.24-.24-.32-.4a11.41 11.41 0 01-3.13-1.12l-1.12-.16c-.56 0-1.2-.08-1.85-.08a1.51 1.51 0 01-.64-.16c-2-.56-2.81-2-2.81-4.25v-.56a.52.52 0 011 .08v.48c0 1.76.56 2.65 2 3.13a1.07 1.07 0 00.4.08c.56 0 1.2.08 1.85.08l1 .08a.76.76 0 01.56.16 8.18 8.18 0 002.89 1 1 1 0 01.56.4 1.75 1.75 0 00.32.4c.16.24.32.4.48.64l.16.16.16-.16a1.61 1.61 0 011.75-.36 1.89 1.89 0 00.16-.64 6.07 6.07 0 00-.08-1.2v-.24l-.4-.4a4.2 4.2 0 01-.8-.88 22.67 22.67 0 00-2.65-3 2.28 2.28 0 01-.88-1.68l-.08-.16a2.5 2.5 0 00-.56-.72c-.32-.4-.56-.64-.72-.88s-.48-.56-.8-1a.6.6 0 010-.72 6.82 6.82 0 001.12-3c.08-.24.08-.48.16-.64a.53.53 0 01.64-.4.57.57 0 01.4.72 5.11 5.11 0 00-.16.56 9.16 9.16 0 01-1 3 4.63 4.63 0 01.64.8c.24.24.4.56.72.88a8.4 8.4 0 01.64.88 1.51 1.51 0 01.32.72 1 1 0 00.48.8 25.35 25.35 0 012.81 3.13 6.13 6.13 0 00.72.72l.4.4a1 1 0 01.32.56v.32c0 .48.08.88.08 1.44a3.39 3.39 0 01-.24 1v.4a.82.82 0 01-.4.48.89.89 0 01-.64 0 .61.61 0 00-.8.08 2.46 2.46 0 01-1.11.52zM5 21.1h-.2a.53.53 0 01-.4-.64l.16-.56A19.17 19.17 0 018 12.36a14 14 0 015-4.17 7.15 7.15 0 013.13-.72 6 6 0 011.2-1.52 4.45 4.45 0 01.67-.49l.16-.08A1.88 1.88 0 0019 4.5a.76.76 0 01.8-.32.93.93 0 01.32.8 8.25 8.25 0 01-1.2 3.77A.57.57 0 0118 8a4.4 4.4 0 00.64-1.6l-.08.08c-.16.16-.32.24-.48.4a2.86 2.86 0 00-1 1.28.51.51 0 01-.48.4h-.48a5.94 5.94 0 00-2.57.56A14.92 14.92 0 008.89 13a17.27 17.27 0 00-3.21 7.06l-.16.56a.59.59 0 01-.52.48z"/></svg>